<svg width="21" height="23" viewBox="0 0 21 23" fill="none" xmlns="http://www.w3.org/2000/svg">
<path d="M20.4438 8.90129C20.4531 8.33332 20.2987 7.77467 19.999 7.29212C19.6993 6.80957 19.2669 6.42354 18.7537 6.18017C18.7109 5.6512 18.469 5.15815 18.0769 4.80054C17.6848 4.44293 17.1716 4.2474 16.641 4.25341C16.474 4.26679 16.3094 4.30085 16.1508 4.35481C16.1163 3.97971 15.9781 3.62163 15.7515 3.32069C15.5249 3.01976 15.2191 2.78786 14.8681 2.65099C14.5172 2.51413 14.135 2.4777 13.7646 2.54579C13.3941 2.61388 13.0499 2.7838 12.7706 3.0365C12.7706 2.47619 12.548 1.93882 12.1518 1.54262C11.7556 1.14641 11.2182 0.923828 10.6579 0.923828C10.0976 0.923828 9.56019 1.14641 9.16399 1.54262C8.76779 1.93882 8.5452 2.47619 8.5452 3.0365C8.5452 3.0365 8.61281 3.07031 8.61281 3.12101C8.33379 2.88169 7.99586 2.72132 7.63403 2.65649C7.2722 2.59166 6.89961 2.62474 6.55486 2.7523C6.21011 2.87985 5.90572 3.09725 5.67323 3.38198C5.44073 3.66671 5.28858 4.00842 5.23253 4.37172C4.96499 4.28641 4.68508 4.24642 4.40436 4.25341C3.98628 4.24991 3.57382 4.34987 3.20372 4.54438C2.83363 4.73888 2.51738 5.0219 2.28315 5.36823C2.04892 5.71456 1.90398 6.11344 1.86123 6.52934C1.81849 6.94525 1.87927 7.36527 2.03816 7.752C1.50872 7.89998 1.04225 8.21714 0.709941 8.65506C0.377636 9.09299 0.197754 9.62762 0.197754 10.1774C0.197754 10.7271 0.377636 11.2617 0.709941 11.6996C1.04225 12.1376 1.50872 12.4547 2.03816 12.6027C2.21257 13.1418 2.56366 13.6063 3.0347 13.9211C3.50573 14.236 4.06918 14.3828 4.63398 14.3379C5.19877 14.2929 5.7319 14.0588 6.14721 13.6734C6.56251 13.288 6.83572 12.7738 6.92267 12.214C7.23196 12.4844 7.61563 12.6534 8.02126 12.7041V21.1548L5.23253 22.845H13.6832L10.979 21.1548V17.7745C12.2265 16.2677 13.8379 15.1042 15.6607 14.3943C16.0343 14.4819 16.4231 14.483 16.7972 14.3974C17.1714 14.3119 17.521 14.1419 17.8194 13.9006C18.1178 13.6592 18.3571 13.3529 18.5191 13.0049C18.681 12.6569 18.7612 12.2766 18.7537 11.8928C18.7586 11.8028 18.7586 11.7125 18.7537 11.6224C19.2669 11.379 19.6993 10.993 19.999 10.5105C20.2987 10.0279 20.4531 9.46927 20.4438 8.90129ZM10.979 16.5238V10.7097C11.4353 11.521 12.2939 12.0264 13.2269 12.0281H13.7001C13.7272 12.7717 14.0787 13.463 14.6635 13.921C13.2848 14.5531 12.0355 15.4357 10.979 16.5238Z" fill="black"/>
</svg>
