<svg width="26" height="20" viewBox="0 0 26 20" fill="none" xmlns="http://www.w3.org/2000/svg">
<path d="M25.2363 0.718262H17.014C17.014 0.718262 16.4658 5.62512 17.5621 10.532C18.0028 11.3539 19.0915 11.7967 20.3029 11.909V17.8923H20.1204L18.1103 19.7323H24.14L22.1754 17.8923H21.9474V11.8642C23.1094 11.6955 24.1745 11.2423 24.6881 10.532C25.7844 6.23848 25.2363 0.718262 25.2363 0.718262ZM24.6881 4.39841H17.5621V1.33162H24.6881V4.39841ZM11.2584 17.8923H8.24351V12.6787L14.2732 2.55833H0.021201L3.03605 7.61853L6.05089 12.6787V17.8923H3.03605C2.81798 17.8923 2.60884 17.9892 2.45464 18.1617C2.30044 18.3343 2.21382 18.5683 2.21382 18.8123C2.21382 19.0563 2.30044 19.2903 2.45464 19.4629C2.60884 19.6354 2.81798 19.7323 3.03605 19.7323H11.2584C11.4764 19.7323 11.6856 19.6354 11.8398 19.4629C11.994 19.2903 12.0806 19.0563 12.0806 18.8123C12.0806 18.5683 11.994 18.3343 11.8398 18.1617C11.6856 17.9892 11.4764 17.8923 11.2584 17.8923Z" fill="black"/>
</svg>
