<svg width="16" height="24" viewBox="0 0 16 24" fill="none" xmlns="http://www.w3.org/2000/svg">
<path fill-rule="evenodd" clip-rule="evenodd" d="M12.4375 1.5H3.48438C3.08862 1.5 2.70908 1.65804 2.42924 1.93934C2.1494 2.22064 1.99219 2.60218 1.99219 3V21C1.99219 21.3978 2.1494 21.7794 2.42924 22.0607C2.70908 22.342 3.08862 22.5 3.48438 22.5H12.4375C12.8333 22.5 13.2128 22.342 13.4926 22.0607C13.7725 21.7794 13.9297 21.3978 13.9297 21V3C13.9297 2.60218 13.7725 2.22064 13.4926 1.93934C13.2128 1.65804 12.8333 1.5 12.4375 1.5ZM3.48438 0C2.69287 0 1.93378 0.316071 1.3741 0.87868C0.814424 1.44129 0.5 2.20435 0.5 3V21C0.5 21.7956 0.814424 22.5587 1.3741 23.1213C1.93378 23.6839 2.69287 24 3.48438 24H12.4375C13.229 24 13.9881 23.6839 14.5478 23.1213C15.1075 22.5587 15.4219 21.7956 15.4219 21V3C15.4219 2.20435 15.1075 1.44129 14.5478 0.87868C13.9881 0.316071 13.229 0 12.4375 0L3.48438 0Z" fill="#F5F1F1"/>
<path fill-rule="evenodd" clip-rule="evenodd" d="M7.96088 21C8.35661 21 8.73614 20.842 9.01597 20.5607C9.2958 20.2794 9.453 19.8978 9.453 19.5C9.453 19.1022 9.2958 18.7206 9.01597 18.4393C8.73614 18.158 8.35661 18 7.96088 18C7.56514 18 7.18561 18.158 6.90578 18.4393C6.62596 18.7206 6.46875 19.1022 6.46875 19.5C6.46875 19.8978 6.62596 20.2794 6.90578 20.5607C7.18561 20.842 7.56514 21 7.96088 21Z" fill="#F5F1F1"/>
</svg>
